<?xml version="1.0" encoding="UTF-8" standalone="no"?>
<svg
   width="256"
   height="256"
   viewBox="0 0 256 256"
   fill="none"
   version="1.1"
   id="svg4"
   sodipodi:docname="logo-square.svg"
   inkscape:export-filename="../fobos/logo/logo.svg"
   inkscape:export-xdpi="96"
   inkscape:export-ydpi="96"
   inkscape:version="1.4 (e7c3feb100, 2024-10-09)"
   xmlns:inkscape="http://www.inkscape.org/namespaces/inkscape"
   xmlns:sodipodi="http://sodipodi.sourceforge.net/DTD/sodipodi-0.dtd"
   xmlns="http://www.w3.org/2000/svg"
   xmlns:svg="http://www.w3.org/2000/svg">
  <defs
     id="defs4" />
  <sodipodi:namedview
     id="namedview4"
     pagecolor="#ffffff"
     bordercolor="#000000"
     borderopacity="0.25"
     inkscape:showpageshadow="2"
     inkscape:pageopacity="0.0"
     inkscape:pagecheckerboard="0"
     inkscape:deskcolor="#d1d1d1"
     inkscape:zoom="1.9570313"
     inkscape:cx="62.339321"
     inkscape:cy="185.48503"
     inkscape:window-width="1908"
     inkscape:window-height="1018"
     inkscape:window-x="4"
     inkscape:window-y="4"
     inkscape:window-maximized="1"
     inkscape:current-layer="svg4">
    <inkscape:page
       x="0"
       y="0"
       width="256"
       height="256"
       id="page2"
       margin="0"
       bleed="0" />
  </sodipodi:namedview>
  <rect
     x="0"
     width="255.99712"
     height="256"
     fill="#800000"
     id="rect1-3"
     style="fill:#000000;fill-opacity:1;stroke-width:0.999994"
     y="0" />
  <rect
     x="45.191498"
     width="159.97662"
     height="159.97842"
     fill="#800000"
     id="rect1"
     style="fill:#b51818;fill-opacity:1;stroke-width:0.624912"
     y="47.959316" />
  <path
     id="path5"
     style="fill:#ffffff;fill-opacity:1;stroke:none;stroke-width:9.37368;stroke-linecap:round;stroke-linejoin:round;stroke-dasharray:none;stroke-opacity:0.976471;paint-order:stroke fill markers"
     d="m 208.07817,71.43063 a 53.162791,104.38142 76.623075 0 1 18.69861,22.028654 53.162791,104.38142 76.623075 0 1 -89.24973,75.868406 53.162791,104.38142 76.623075 0 1 -113.8488,-27.57033 53.162791,104.38142 76.623075 0 1 6.16743,-26.927 A 60.335066,123.41954 76.623086 0 0 8.9175702,160.69379 60.335066,123.41954 76.623086 0 0 142.94712,190.83814 60.335066,123.41954 76.623086 0 0 249.05979,103.58649 60.335066,123.41954 76.623086 0 0 208.07817,71.43063 Z"
     inkscape:transform-center-y="6.4226483"
     inkscape:transform-center-x="-1.0109092" />
  <path
     id="path9"
     style="fill:#b51818;fill-opacity:1;stroke-width:0.624912;stroke-linecap:round;paint-order:stroke fill markers"
     d="m 174.85884,133.47146 c -6.1155,0 -11.77213,1.4731 -16.43802,4.60754 -1.66746,1.11274 -3.18082,2.42213 -4.54036,3.89353 v -7.5637 h -51.92967 v 69.64639 h 21.93405 v -26.62118 h 21.78393 c 0.49109,3.70848 1.334,7.15804 2.59239,10.32576 l 0.005,0.0122 0.005,0.0134 c 2.16129,5.36601 5.59874,9.84906 10.15842,12.88889 l 0.0184,0.0122 0.0196,0.0122 c 4.66555,3.05677 10.29468,4.48181 16.39164,4.48181 6.07535,0 11.65927,-1.37659 16.27936,-4.37562 l 0.0293,-0.0184 0.028,-0.0195 c 4.56532,-3.04357 8.01718,-7.5416 10.23775,-12.94503 2.22826,-5.42215 3.2344,-11.65373 3.2344,-18.63642 0,-6.86185 -1.00669,-12.98288 -3.24904,-18.29708 -2.22157,-5.32645 -5.66677,-9.76611 -10.19627,-12.7949 -4.61971,-3.15142 -10.25626,-4.62219 -16.36357,-4.62219 z m -50.974,21.74756 h 22.95319 c -0.11782,0.431 -0.22089,0.87217 -0.32587,1.31208 h -22.62732 z" />
  <path
     d="M 107.57475,198.43147 V 140.0331 h 40.68156 v 9.5612 h -29.99562 v 12.56081 h 24.46518 v 9.65494 h -24.46518 v 26.62142 z"
     fill="#ffffff"
     id="path2"
     style="stroke-width:0.624912" />
  <path
     d="m 174.8593,199.55632 c -5.24923,0 -9.68608,-1.18735 -13.31055,-3.56202 -3.56198,-2.37469 -6.2491,-5.81172 -8.06132,-10.31111 -1.81224,-4.56189 -2.71836,-10.06114 -2.71836,-16.49778 0,-6.31165 0.90612,-11.68593 2.71836,-16.12283 1.81222,-4.49938 4.49934,-7.93643 8.06132,-10.3111 3.62447,-2.43717 8.06132,-3.65577 13.31055,-3.65577 5.24923,0 9.65484,1.2186 13.21682,3.65577 3.56198,2.37467 6.28034,5.81172 8.15506,10.3111 1.87472,4.4369 2.81209,9.81118 2.81209,16.12283 0,6.43664 -0.93737,11.93589 -2.81209,16.49778 -1.87472,4.56187 -4.59308,8.03016 -8.15506,10.40485 -3.56198,2.31218 -7.96759,3.46828 -13.21682,3.46828 z m 0,-9.65495 c 2.56212,0 4.74931,-0.74991 6.56154,-2.24971 1.81223,-1.49978 3.21828,-3.78073 4.21813,-6.84282 0.99985,-3.06209 1.49979,-6.96781 1.49979,-11.71717 0,-4.37441 -0.49994,-8.0614 -1.49979,-11.06101 -0.99985,-3.06209 -2.4059,-5.37428 -4.21813,-6.93657 -1.81223,-1.56228 -3.99942,-2.34342 -6.56154,-2.34342 -2.56213,0 -4.78055,0.78114 -6.65528,2.34342 -1.81224,1.56229 -3.18704,3.87448 -4.1244,6.93657 -0.93736,2.99961 -1.40604,6.6866 -1.40604,11.06101 0,4.74936 0.46868,8.65508 1.40604,11.71717 0.93736,3.06209 2.31216,5.34304 4.1244,6.84282 1.87473,1.4998 4.09315,2.24971 6.65528,2.24971 z"
     fill="#ffffff"
     id="path1"
     style="stroke-width:0.624912" />
</svg>
