<svg width="512" height="512" viewBox="0 0 512 512" fill="none" xmlns="http://www.w3.org/2000/svg">
<path d="M400.75 96.2932H81.3403V415.707H400.75V96.2932Z" fill="#B51818"/>
<path d="M406.561 143.156C426.869 154.502 439.716 169.637 443.894 187.139C450.406 214.526 435.29 245.871 401.872 274.279C368.454 302.687 319.471 325.83 265.698 338.618C211.925 351.406 157.767 352.79 115.138 342.467C72.5087 332.143 59.5112 319.908 52.9974 292.521C49.1308 275.709 53.3574 257.255 65.3113 238.758C31.797 269.262 16.9438 301.812 23.5262 330.33C30.9179 361.412 48.6538 376.265 98.8393 387.552C149.025 398.839 212.938 396.686 276.52 381.566C340.101 366.446 398.142 339.597 437.875 306.927C477.607 274.257 495.776 238.441 488.385 207.359C481.413 178.042 452.218 155.134 406.561 143.156Z" fill="white"/>
<path d="M340.235 267.027C328.024 267.027 316.73 269.968 307.414 276.227C304.085 278.448 301.064 281.063 298.349 284V268.899H194.666V407.955H238.46V354.803H281.954C282.934 362.207 284.617 369.095 287.13 375.419L287.14 375.444L287.15 375.471C291.465 386.184 298.328 395.135 307.432 401.205L307.469 401.229L307.508 401.253C316.823 407.356 328.062 410.202 340.235 410.202C352.366 410.202 363.514 407.453 372.739 401.465L372.797 401.429L372.853 401.39C381.968 395.313 388.86 386.332 393.294 375.544C397.743 364.718 399.752 352.276 399.752 338.334C399.752 324.634 397.742 312.412 393.265 301.802C388.829 291.167 381.951 282.303 372.907 276.256C363.683 269.963 352.429 267.027 340.235 267.027ZM238.46 310.448H284.288C284.053 311.309 283.847 312.19 283.638 313.068H238.46V310.448Z" fill="#B51818"/>
<path d="M205.895 396.727V280.128H287.12V299.218H227.231V324.297H276.078V343.574H227.231V396.727H205.895Z" fill="white"/>
<path d="M340.236 398.972C329.755 398.972 320.896 396.602 313.66 391.861C306.548 387.119 301.183 380.257 297.564 371.273C293.946 362.165 292.137 351.185 292.137 338.334C292.137 325.732 293.946 315.002 297.564 306.143C301.183 297.159 306.548 290.297 313.66 285.556C320.896 280.69 329.755 278.257 340.236 278.257C350.716 278.257 359.513 280.69 366.624 285.556C373.736 290.297 379.164 297.159 382.907 306.143C386.65 315.002 388.521 325.732 388.521 338.334C388.521 351.185 386.65 362.165 382.907 371.273C379.164 380.382 373.736 387.306 366.624 392.048C359.513 396.664 350.716 398.972 340.236 398.972ZM340.236 379.695C345.351 379.695 349.718 378.198 353.336 375.204C356.955 372.209 359.762 367.655 361.758 361.541C363.755 355.427 364.753 347.629 364.753 338.147C364.753 329.413 363.755 322.051 361.758 316.062C359.762 309.948 356.955 305.332 353.336 302.213C349.718 299.093 345.351 297.534 340.236 297.534C335.12 297.534 330.691 299.093 326.948 302.213C323.329 305.332 320.584 309.948 318.713 316.062C316.841 322.051 315.906 329.413 315.906 338.147C315.906 347.629 316.841 355.427 318.713 361.541C320.584 367.655 323.329 372.209 326.948 375.204C330.691 378.198 335.12 379.695 340.236 379.695Z" fill="white"/>
</svg>
