<svg width="1112" height="263" viewBox="0 0 1112 263" fill="none" xmlns="http://www.w3.org/2000/svg">
<path d="M289.733 13.658H45.3936V258H289.733V13.658Z" fill="#B51818"/>
<path d="M294.178 49.5067C309.713 58.1859 319.541 69.7636 322.737 83.152C327.718 104.103 316.155 128.081 290.591 149.812C265.027 171.543 227.556 189.247 186.422 199.029C145.287 208.811 103.858 209.87 71.2476 201.973C38.6377 194.076 28.695 184.717 23.7121 163.766C20.7543 150.906 23.9875 136.789 33.1319 122.64C7.49442 145.974 -3.86787 170.874 1.16748 192.689C6.8219 216.466 20.3894 227.828 58.7798 236.462C97.1702 245.097 146.062 243.449 194.7 231.883C243.338 220.317 287.738 199.779 318.132 174.787C348.526 149.795 362.425 122.397 356.771 98.6198C351.438 76.1931 329.104 58.6696 294.178 49.5067Z" fill="white"/>
<path d="M243.44 144.264C234.1 144.264 225.46 146.514 218.334 151.302C215.787 153.001 213.475 155.001 211.399 157.248V145.696H132.085V252.07H165.585V211.41H198.857C199.607 217.074 200.894 222.343 202.816 227.181L202.824 227.2L202.832 227.22C206.133 235.416 211.383 242.263 218.347 246.906L218.375 246.925L218.405 246.943C225.531 251.612 234.129 253.789 243.441 253.789C252.72 253.789 261.248 251.686 268.305 247.106L268.35 247.078L268.392 247.048C275.365 242.399 280.637 235.529 284.029 227.276C287.432 218.995 288.969 209.477 288.969 198.812C288.969 188.332 287.431 178.983 284.007 170.866C280.614 162.731 275.352 155.95 268.433 151.324C261.378 146.511 252.768 144.264 243.44 144.264ZM165.585 177.48H200.643C200.463 178.139 200.305 178.812 200.145 179.484H165.585V177.48Z" fill="#B51818"/>
<path d="M140.674 243.481V154.286H202.809V168.89H156.995V188.074H194.362V202.821H156.995V243.481H140.674Z" fill="white"/>
<path d="M243.441 245.199C235.423 245.199 228.647 243.385 223.111 239.758C217.671 236.131 213.567 230.882 210.799 224.01C208.031 217.042 206.647 208.643 206.647 198.812C206.647 189.172 208.031 180.963 210.799 174.187C213.567 167.315 217.671 162.065 223.111 158.438C228.647 154.716 235.423 152.855 243.441 152.855C251.458 152.855 258.187 154.716 263.627 158.438C269.068 162.065 273.22 167.315 276.083 174.187C278.946 180.963 280.378 189.172 280.378 198.812C280.378 208.643 278.946 217.042 276.083 224.01C273.22 230.977 269.068 236.274 263.627 239.901C258.187 243.433 251.458 245.199 243.441 245.199ZM243.441 230.452C247.354 230.452 250.695 229.307 253.463 227.016C256.23 224.726 258.378 221.242 259.905 216.565C261.432 211.888 262.196 205.923 262.196 198.669C262.196 191.987 261.432 186.356 259.905 181.775C258.378 177.098 256.23 173.566 253.463 171.18C250.695 168.794 247.354 167.601 243.441 167.601C239.528 167.601 236.139 168.794 233.276 171.18C230.508 173.566 228.408 177.098 226.977 181.775C225.545 186.356 224.829 191.987 224.829 198.669C224.829 205.923 225.545 211.888 226.977 216.565C228.408 221.242 230.508 224.726 233.276 227.016C236.139 229.307 239.528 230.452 243.441 230.452Z" fill="white"/>
<path d="M415.67 182.299V22.8106H526.774V48.9226H444.854V83.2266H511.67V109.595H444.854V182.299H415.67ZM609.668 185.371C595.332 185.371 583.215 182.128 573.316 175.643C563.588 169.157 556.25 159.771 551.3 147.483C546.351 135.024 543.876 120.005 543.876 102.427C543.876 85.1892 546.351 70.5119 551.3 58.3946C556.25 46.1066 563.588 36.7199 573.316 30.2346C583.215 23.5786 595.332 20.2506 609.668 20.2506C624.004 20.2506 636.036 23.5786 645.764 30.2346C655.492 36.7199 662.916 46.1066 668.036 58.3946C673.156 70.5119 675.716 85.1892 675.716 102.427C675.716 120.005 673.156 135.024 668.036 147.483C662.916 159.941 655.492 169.413 645.764 175.899C636.036 182.213 624.004 185.371 609.668 185.371ZM609.668 159.003C616.666 159.003 622.639 156.955 627.588 152.859C632.538 148.763 636.378 142.533 639.108 134.171C641.839 125.808 643.204 115.141 643.204 102.171C643.204 90.2239 641.839 80.1546 639.108 71.9626C636.378 63.5999 632.538 57.2852 627.588 53.0186C622.639 48.7519 616.666 46.6186 609.668 46.6186C602.671 46.6186 596.612 48.7519 591.492 53.0186C586.543 57.2852 582.788 63.5999 580.228 71.9626C577.668 80.1546 576.388 90.2239 576.388 102.171C576.388 115.141 577.668 125.808 580.228 134.171C582.788 142.533 586.543 148.763 591.492 152.859C596.612 156.955 602.671 159.003 609.668 159.003ZM699.73 182.299V22.8106H753.746C764.669 22.8106 773.97 23.8346 781.65 25.8826C789.501 27.7599 795.986 30.4906 801.106 34.0746C806.226 37.6586 809.981 41.9252 812.37 46.8746C814.93 51.8239 816.21 57.2852 816.21 63.2586C816.21 67.6959 815.272 72.2186 813.394 76.8266C811.688 81.4346 809.042 85.6159 805.458 89.3706C802.045 92.9546 797.693 95.7706 792.402 97.8186C797.01 99.6959 801.192 102 804.946 104.731C808.872 107.291 812.114 110.192 814.674 113.435C817.405 116.677 819.453 120.261 820.818 124.187C822.354 127.941 823.122 131.867 823.122 135.963C823.122 142.96 821.672 149.36 818.77 155.163C816.04 160.965 811.773 165.915 805.97 170.011C800.338 173.936 793.17 177.008 784.466 179.227C775.762 181.275 765.437 182.299 753.49 182.299H699.73ZM732.754 155.675H756.818C763.645 155.675 769.448 154.907 774.226 153.371C779.005 151.664 782.589 149.275 784.978 146.203C787.538 143.131 788.818 139.461 788.818 135.195C788.818 130.416 787.624 126.32 785.234 122.907C782.845 119.323 778.92 116.592 773.458 114.715C767.997 112.667 760.914 111.643 752.21 111.643H732.754V155.675ZM732.754 85.7866H751.186C759.208 85.7866 765.522 85.0186 770.13 83.4826C774.909 81.9466 778.237 79.7279 780.114 76.8266C781.992 73.7546 782.93 70.2559 782.93 66.3306C782.93 63.5999 782.333 61.2106 781.138 59.1626C780.114 56.9439 778.408 55.1519 776.018 53.7866C773.629 52.2506 770.557 51.0559 766.802 50.2026C763.218 49.3492 759.037 48.9226 754.258 48.9226H732.754V85.7866ZM901.408 185.371C887.072 185.371 874.955 182.128 865.056 175.643C855.328 169.157 847.99 159.771 843.04 147.483C838.091 135.024 835.616 120.005 835.616 102.427C835.616 85.1892 838.091 70.5119 843.04 58.3946C847.99 46.1066 855.328 36.7199 865.056 30.2346C874.955 23.5786 887.072 20.2506 901.408 20.2506C915.744 20.2506 927.776 23.5786 937.504 30.2346C947.232 36.7199 954.656 46.1066 959.776 58.3946C964.896 70.5119 967.456 85.1892 967.456 102.427C967.456 120.005 964.896 135.024 959.776 147.483C954.656 159.941 947.232 169.413 937.504 175.899C927.776 182.213 915.744 185.371 901.408 185.371ZM901.408 159.003C908.406 159.003 914.379 156.955 919.328 152.859C924.278 148.763 928.118 142.533 930.848 134.171C933.579 125.808 934.944 115.141 934.944 102.171C934.944 90.2239 933.579 80.1546 930.848 71.9626C928.118 63.5999 924.278 57.2852 919.328 53.0186C914.379 48.7519 908.406 46.6186 901.408 46.6186C894.411 46.6186 888.352 48.7519 883.232 53.0186C878.283 57.2852 874.528 63.5999 871.968 71.9626C869.408 80.1546 868.128 90.2239 868.128 102.171C868.128 115.141 869.408 125.808 871.968 134.171C874.528 142.533 878.283 148.763 883.232 152.859C888.352 156.955 894.411 159.003 901.408 159.003ZM1039.34 185.115C1027.57 185.115 1016.47 183.579 1006.06 180.507C995.652 177.435 987.118 172.656 980.462 166.171L996.334 140.059L997.614 138.011L999.918 139.291C1000.26 140.485 1000.69 141.765 1001.2 143.131C1001.88 144.325 1003.33 145.861 1005.55 147.739C1010.33 150.811 1015.62 153.371 1021.42 155.419C1027.22 157.296 1033.45 158.235 1040.11 158.235C1044.55 158.235 1048.56 157.893 1052.14 157.211C1055.73 156.528 1058.8 155.504 1061.36 154.139C1063.92 152.603 1065.88 150.64 1067.25 148.251C1068.78 145.861 1069.55 143.131 1069.55 140.059C1069.55 138.181 1069.21 136.389 1068.53 134.683C1068.01 132.805 1067.08 131.099 1065.71 129.563C1064.34 127.856 1062.3 126.149 1059.57 124.443C1057.01 122.736 1053.76 120.859 1049.84 118.811C1045.91 116.592 1041.05 114.373 1035.25 112.155C1023.13 107.035 1013.49 102.085 1006.32 97.3066C999.321 92.5279 994.286 87.3226 991.214 81.6906C988.313 75.8879 986.862 69.1466 986.862 61.4666C986.862 53.4452 989.252 46.3626 994.03 40.2186C998.98 33.9039 1005.72 28.9546 1014.25 25.3706C1022.96 21.7866 1032.6 19.9946 1043.18 19.9946C1050.69 19.9946 1057.69 20.7626 1064.17 22.2986C1070.66 23.8346 1076.63 26.1386 1082.09 29.2106C1087.73 32.2826 1092.85 36.1226 1097.45 40.7306L1078.25 62.2346L1076.72 64.2826L1074.67 62.4906C1074.5 61.1252 1074.16 59.8452 1073.65 58.6506C1073.3 57.2852 1072.2 55.6639 1070.32 53.7866C1066.56 51.0559 1062.55 49.1786 1058.29 48.1546C1054.19 47.1306 1049.41 46.6186 1043.95 46.6186C1040.2 46.6186 1036.78 47.0452 1033.71 47.8986C1030.81 48.5812 1028.25 49.6052 1026.03 50.9706C1023.81 52.1652 1022.1 53.6159 1020.91 55.3226C1019.89 56.8586 1019.37 58.6506 1019.37 60.6986C1019.37 62.4052 1019.63 64.0266 1020.14 65.5626C1020.65 67.0986 1021.59 68.6346 1022.96 70.1706C1024.32 71.7066 1026.37 73.3279 1029.1 75.0346C1031.83 76.7412 1035.33 78.6186 1039.6 80.6666C1043.86 82.5439 1049.16 84.7626 1055.47 87.3226C1064.34 91.2479 1071.77 95.0026 1077.74 98.5866C1083.89 102.171 1088.66 105.925 1092.08 109.851C1095.66 113.776 1098.22 118.043 1099.76 122.651C1101.29 127.259 1102.06 132.549 1102.06 138.523C1102.06 146.373 1099.84 153.883 1095.41 161.051C1091.14 168.219 1084.31 174.021 1074.93 178.459C1065.71 182.896 1053.85 185.115 1039.34 185.115Z" fill="white"/>
<path d="M756.502 193.648C756.658 193.182 757.355 193.182 757.511 193.648L760.103 201.394C760.155 201.55 760.283 201.671 760.447 201.72L768.637 204.172C769.129 204.32 769.129 204.979 768.637 205.126L760.447 207.578C760.283 207.627 760.155 207.749 760.103 207.904L757.511 215.651C757.355 216.116 756.658 216.116 756.502 215.651L753.91 207.904C753.858 207.749 753.729 207.627 753.565 207.578L745.376 205.126C744.883 204.979 744.883 204.32 745.376 204.172L753.565 201.72C753.729 201.671 753.858 201.55 753.91 201.394L756.502 193.648Z" fill="white"/>
<path d="M743.915 206.541C742.703 205.576 742.703 203.723 743.915 202.758H400.006C398.902 202.758 398.006 203.604 398.006 204.649C398.006 205.694 398.902 206.541 400.006 206.541H743.915Z" fill="url(#paint0_linear_21_28)"/>
<path d="M770.097 206.541C771.309 205.576 771.309 203.723 770.097 202.758H1110.01C1111.11 202.758 1112.01 203.604 1112.01 204.649C1112.01 205.694 1111.11 206.541 1110.01 206.541H770.097Z" fill="url(#paint1_linear_21_28)"/>
<path d="M431.226 251.92V255H418.866V227.28H422.466V251.92H431.226ZM448.306 254.4C447.959 254.533 447.533 254.667 447.026 254.8C446.546 254.907 446.026 255 445.466 255.08C444.933 255.187 444.386 255.267 443.826 255.32C443.293 255.4 442.799 255.44 442.346 255.44C441.253 255.44 440.253 255.307 439.346 255.04C438.439 254.8 437.666 254.36 437.026 253.72C436.386 253.08 435.893 252.213 435.546 251.12C435.199 250 435.026 248.6 435.026 246.92V234H438.466V246.8C438.466 248.853 438.773 250.307 439.386 251.16C440.026 251.987 440.986 252.4 442.266 252.4C442.693 252.4 443.119 252.387 443.546 252.36C443.973 252.307 444.413 252.213 444.866 252.08V234H448.306V254.4ZM454.845 234.44C455.538 234.147 456.271 233.92 457.045 233.76C457.818 233.573 458.658 233.48 459.565 233.48C461.431 233.48 462.951 234.067 464.125 235.24C465.298 236.387 465.885 238.187 465.885 240.64V254.56C464.925 254.827 463.938 255.04 462.925 255.2C461.938 255.36 460.965 255.44 460.005 255.44C459.045 255.44 458.138 255.32 457.285 255.08C456.458 254.84 455.725 254.453 455.085 253.92C454.471 253.387 453.978 252.72 453.605 251.92C453.231 251.093 453.045 250.093 453.045 248.92C453.045 247.827 453.205 246.88 453.525 246.08C453.871 245.253 454.338 244.573 454.925 244.04C455.511 243.48 456.205 243.067 457.005 242.8C457.805 242.507 458.671 242.36 459.605 242.36C460.485 242.36 461.458 242.467 462.525 242.68V240.76C462.525 239.213 462.218 238.133 461.605 237.52C461.018 236.907 460.165 236.6 459.045 236.6C458.431 236.6 457.845 236.667 457.285 236.8C456.751 236.907 456.178 237.093 455.565 237.36L454.845 234.44ZM456.485 248.88C456.485 250.107 456.805 251.013 457.445 251.6C458.085 252.187 458.991 252.48 460.165 252.48C460.885 252.48 461.671 252.387 462.525 252.2V245.52C461.725 245.307 460.938 245.2 460.165 245.2C459.658 245.2 459.178 245.267 458.725 245.4C458.271 245.507 457.871 245.707 457.525 246C457.205 246.267 456.951 246.64 456.765 247.12C456.578 247.573 456.485 248.16 456.485 248.88ZM484.201 230.28C484.068 232.2 483.974 233.8 483.921 235.08C483.868 236.36 483.814 237.373 483.761 238.12C486.268 238.467 488.108 239.373 489.281 240.84C490.454 242.307 491.041 244.293 491.041 246.8C491.041 248.213 490.841 249.467 490.441 250.56C490.041 251.653 489.481 252.573 488.761 253.32C488.068 254.067 487.241 254.627 486.281 255C485.321 255.4 484.281 255.6 483.161 255.6C482.388 255.6 481.601 255.493 480.801 255.28C480.001 255.067 479.254 254.76 478.561 254.36L479.521 251.52C480.668 252.16 481.841 252.48 483.041 252.48C484.321 252.48 485.401 252.013 486.281 251.08C487.161 250.147 487.601 248.72 487.601 246.8C487.601 244.693 487.001 243.187 485.801 242.28C484.628 241.347 482.828 240.827 480.401 240.72C480.534 239.387 480.641 238.173 480.721 237.08C480.801 235.96 480.868 234.88 480.921 233.84C480.974 232.773 481.014 231.72 481.041 230.68C481.094 229.613 481.134 228.48 481.161 227.28H490.521V230.28H484.201ZM500.788 253.16C500.788 253.773 500.562 254.32 500.108 254.8C499.682 255.28 499.108 255.52 498.388 255.52C497.668 255.52 497.095 255.28 496.668 254.8C496.242 254.32 496.028 253.773 496.028 253.16C496.028 252.52 496.242 251.96 496.668 251.48C497.095 251 497.668 250.76 498.388 250.76C499.108 250.76 499.682 251 500.108 251.48C500.562 251.96 500.788 252.52 500.788 253.16ZM505.845 232.8C506.352 232.507 506.872 232.147 507.405 231.72C507.965 231.293 508.499 230.84 509.005 230.36C509.512 229.853 509.979 229.347 510.405 228.84C510.859 228.307 511.232 227.787 511.525 227.28H514.165V255H510.725V232.72C510.272 233.2 509.739 233.653 509.125 234.08C508.539 234.507 507.912 234.907 507.245 235.28L505.845 232.8ZM534.365 234H539.645V236.96H534.365V248.52C534.365 249.96 534.619 250.973 535.125 251.56C535.659 252.12 536.365 252.4 537.245 252.4C537.699 252.4 538.125 252.333 538.525 252.2C538.952 252.067 539.312 251.907 539.605 251.72L540.285 254.48C539.192 255.12 538.032 255.44 536.805 255.44C534.832 255.44 533.352 254.893 532.365 253.8C531.405 252.68 530.925 250.84 530.925 248.28V228.36L534.365 227.76V234ZM557.302 244.52C557.302 246.173 557.155 247.68 556.862 249.04C556.568 250.373 556.115 251.52 555.502 252.48C554.915 253.44 554.155 254.187 553.222 254.72C552.315 255.253 551.235 255.52 549.982 255.52C548.728 255.52 547.635 255.253 546.702 254.72C545.768 254.187 544.995 253.44 544.382 252.48C543.795 251.52 543.355 250.373 543.062 249.04C542.768 247.68 542.622 246.173 542.622 244.52C542.622 242.893 542.768 241.4 543.062 240.04C543.355 238.68 543.795 237.52 544.382 236.56C544.995 235.573 545.768 234.813 546.702 234.28C547.635 233.747 548.728 233.48 549.982 233.48C551.235 233.48 552.315 233.747 553.222 234.28C554.155 234.813 554.915 235.573 555.502 236.56C556.115 237.52 556.568 238.68 556.862 240.04C557.155 241.4 557.302 242.893 557.302 244.52ZM553.702 244.52C553.702 243.347 553.635 242.28 553.502 241.32C553.368 240.333 553.155 239.493 552.862 238.8C552.568 238.08 552.182 237.533 551.702 237.16C551.222 236.76 550.648 236.56 549.982 236.56C549.288 236.56 548.702 236.76 548.222 237.16C547.768 237.533 547.382 238.08 547.062 238.8C546.768 239.493 546.555 240.333 546.422 241.32C546.288 242.28 546.222 243.347 546.222 244.52C546.222 245.693 546.288 246.773 546.422 247.76C546.555 248.72 546.768 249.547 547.062 250.24C547.382 250.933 547.768 251.48 548.222 251.88C548.702 252.253 549.288 252.44 549.982 252.44C550.648 252.44 551.222 252.253 551.702 251.88C552.182 251.48 552.568 250.933 552.862 250.24C553.155 249.547 553.368 248.72 553.502 247.76C553.635 246.773 553.702 245.693 553.702 244.52ZM579.67 247.64C579.67 248.867 579.536 249.973 579.27 250.96C579.03 251.92 578.63 252.747 578.07 253.44C577.536 254.133 576.816 254.667 575.91 255.04C575.03 255.413 573.95 255.6 572.67 255.6C571.656 255.6 570.683 255.44 569.75 255.12C568.816 254.827 567.976 254.4 567.23 253.84L568.43 251C568.883 251.347 569.483 251.68 570.23 252C571.003 252.293 571.75 252.44 572.47 252.44C573.03 252.44 573.523 252.373 573.95 252.24C574.403 252.107 574.79 251.867 575.11 251.52C575.43 251.147 575.67 250.653 575.83 250.04C575.99 249.4 576.07 248.6 576.07 247.64V227.28H579.67V247.64ZM586.251 234.44C586.944 234.147 587.678 233.92 588.451 233.76C589.224 233.573 590.064 233.48 590.971 233.48C592.838 233.48 594.358 234.067 595.531 235.24C596.704 236.387 597.291 238.187 597.291 240.64V254.56C596.331 254.827 595.344 255.04 594.331 255.2C593.344 255.36 592.371 255.44 591.411 255.44C590.451 255.44 589.544 255.32 588.691 255.08C587.864 254.84 587.131 254.453 586.491 253.92C585.878 253.387 585.384 252.72 585.011 251.92C584.638 251.093 584.451 250.093 584.451 248.92C584.451 247.827 584.611 246.88 584.931 246.08C585.278 245.253 585.744 244.573 586.331 244.04C586.918 243.48 587.611 243.067 588.411 242.8C589.211 242.507 590.078 242.36 591.011 242.36C591.891 242.36 592.864 242.467 593.931 242.68V240.76C593.931 239.213 593.624 238.133 593.011 237.52C592.424 236.907 591.571 236.6 590.451 236.6C589.838 236.6 589.251 236.667 588.691 236.8C588.158 236.907 587.584 237.093 586.971 237.36L586.251 234.44ZM587.891 248.88C587.891 250.107 588.211 251.013 588.851 251.6C589.491 252.187 590.398 252.48 591.571 252.48C592.291 252.48 593.078 252.387 593.931 252.2V245.52C593.131 245.307 592.344 245.2 591.571 245.2C591.064 245.2 590.584 245.267 590.131 245.4C589.678 245.507 589.278 245.707 588.931 246C588.611 246.267 588.358 246.64 588.171 247.12C587.984 247.573 587.891 248.16 587.891 248.88ZM607.764 250.96C608.084 249.893 608.417 248.64 608.764 247.2C609.137 245.76 609.497 244.28 609.844 242.76C610.191 241.213 610.511 239.68 610.804 238.16C611.124 236.64 611.391 235.253 611.604 234H615.044C614.697 235.76 614.284 237.613 613.804 239.56C613.351 241.507 612.871 243.427 612.364 245.32C611.884 247.187 611.391 248.96 610.884 250.64C610.377 252.32 609.911 253.773 609.484 255H605.924C605.497 253.773 605.031 252.32 604.524 250.64C604.017 248.96 603.511 247.187 603.004 245.32C602.524 243.427 602.044 241.507 601.564 239.56C601.111 237.613 600.711 235.76 600.364 234H604.004C604.217 235.253 604.471 236.64 604.764 238.16C605.084 239.68 605.404 241.213 605.724 242.76C606.071 244.28 606.417 245.76 606.764 247.2C607.111 248.64 607.444 249.893 607.764 250.96ZM618.751 234.44C619.444 234.147 620.178 233.92 620.951 233.76C621.724 233.573 622.564 233.48 623.471 233.48C625.338 233.48 626.858 234.067 628.031 235.24C629.204 236.387 629.791 238.187 629.791 240.64V254.56C628.831 254.827 627.844 255.04 626.831 255.2C625.844 255.36 624.871 255.44 623.911 255.44C622.951 255.44 622.044 255.32 621.191 255.08C620.364 254.84 619.631 254.453 618.991 253.92C618.378 253.387 617.884 252.72 617.511 251.92C617.138 251.093 616.951 250.093 616.951 248.92C616.951 247.827 617.111 246.88 617.431 246.08C617.778 245.253 618.244 244.573 618.831 244.04C619.418 243.48 620.111 243.067 620.911 242.8C621.711 242.507 622.578 242.36 623.511 242.36C624.391 242.36 625.364 242.467 626.431 242.68V240.76C626.431 239.213 626.124 238.133 625.511 237.52C624.924 236.907 624.071 236.6 622.951 236.6C622.338 236.6 621.751 236.667 621.191 236.8C620.658 236.907 620.084 237.093 619.471 237.36L618.751 234.44ZM620.391 248.88C620.391 250.107 620.711 251.013 621.351 251.6C621.991 252.187 622.898 252.48 624.071 252.48C624.791 252.48 625.578 252.387 626.431 252.2V245.52C625.631 245.307 624.844 245.2 624.071 245.2C623.564 245.2 623.084 245.267 622.631 245.4C622.178 245.507 621.778 245.707 621.431 246C621.111 246.267 620.858 246.64 620.671 247.12C620.484 247.573 620.391 248.16 620.391 248.88ZM639.455 252.52C640.895 252.52 642.001 252.12 642.775 251.32C643.575 250.52 643.975 249.44 643.975 248.08C643.975 247.36 643.855 246.72 643.615 246.16C643.375 245.6 643.055 245.093 642.655 244.64C642.281 244.187 641.841 243.773 641.335 243.4C640.828 243.027 640.308 242.653 639.775 242.28C639.161 241.853 638.521 241.4 637.855 240.92C637.188 240.44 636.575 239.88 636.015 239.24C635.481 238.6 635.041 237.853 634.695 237C634.348 236.147 634.175 235.147 634.175 234C634.175 232.88 634.361 231.867 634.735 230.96C635.135 230.053 635.668 229.28 636.335 228.64C637.028 228 637.841 227.507 638.775 227.16C639.735 226.813 640.761 226.64 641.855 226.64C642.921 226.64 643.908 226.773 644.815 227.04C645.721 227.307 646.481 227.627 647.095 228L645.975 230.84C645.415 230.467 644.801 230.187 644.135 230C643.495 229.787 642.815 229.68 642.095 229.68C640.788 229.68 639.735 230.04 638.935 230.76C638.161 231.453 637.775 232.48 637.775 233.84C637.775 234.587 637.895 235.24 638.135 235.8C638.401 236.36 638.735 236.867 639.135 237.32C639.561 237.773 640.041 238.187 640.575 238.56C641.135 238.933 641.721 239.32 642.335 239.72C642.948 240.12 643.575 240.56 644.215 241.04C644.855 241.52 645.428 242.08 645.935 242.72C646.468 243.333 646.895 244.067 647.215 244.92C647.561 245.747 647.735 246.733 647.735 247.88C647.735 248.92 647.575 249.907 647.255 250.84C646.935 251.773 646.428 252.6 645.735 253.32C645.068 254.013 644.215 254.573 643.175 255C642.161 255.4 640.961 255.6 639.575 255.6C638.295 255.6 637.175 255.453 636.215 255.16C635.255 254.867 634.401 254.48 633.655 254L634.775 251.12C635.468 251.547 636.175 251.893 636.895 252.16C637.641 252.4 638.495 252.52 639.455 252.52ZM658.972 255.52C657.532 255.52 656.332 255.24 655.372 254.68C654.412 254.12 653.625 253.36 653.012 252.4C652.425 251.413 651.998 250.253 651.732 248.92C651.492 247.587 651.372 246.133 651.372 244.56C651.372 241.093 651.998 238.387 653.252 236.44C654.532 234.467 656.452 233.48 659.012 233.48C659.785 233.48 660.478 233.573 661.092 233.76C661.705 233.947 662.278 234.187 662.812 234.48L661.932 237.32C661.105 236.787 660.185 236.52 659.172 236.52C657.732 236.52 656.665 237.173 655.972 238.48C655.305 239.787 654.972 241.813 654.972 244.56C654.972 245.707 655.038 246.773 655.172 247.76C655.305 248.72 655.532 249.547 655.852 250.24C656.198 250.933 656.638 251.48 657.172 251.88C657.732 252.28 658.438 252.48 659.292 252.48C659.878 252.48 660.398 252.413 660.852 252.28C661.332 252.12 661.785 251.92 662.212 251.68L662.972 254.36C662.545 254.653 661.972 254.92 661.252 255.16C660.558 255.4 659.798 255.52 658.972 255.52ZM675.753 237.12C674.9 236.747 673.94 236.56 672.873 236.56C671.886 236.56 670.966 236.733 670.113 237.08V255H666.673V234.92C667.446 234.547 668.326 234.24 669.313 234C670.326 233.733 671.433 233.6 672.633 233.6C673.273 233.6 673.913 233.64 674.553 233.72C675.193 233.8 675.793 233.947 676.353 234.16L675.753 237.12ZM683.238 255H679.798V234H683.238V255ZM681.518 230.28C680.905 230.28 680.371 230.08 679.918 229.68C679.491 229.253 679.278 228.693 679.278 228C679.278 227.307 679.491 226.76 679.918 226.36C680.371 225.933 680.905 225.72 681.518 225.72C682.131 225.72 682.651 225.933 683.078 226.36C683.531 226.76 683.758 227.307 683.758 228C683.758 228.693 683.531 229.253 683.078 229.68C682.651 230.08 682.131 230.28 681.518 230.28ZM692.886 251.84C693.659 252.267 694.486 252.48 695.366 252.48C696.032 252.48 696.619 252.347 697.126 252.08C697.632 251.813 698.059 251.373 698.406 250.76C698.779 250.147 699.059 249.333 699.246 248.32C699.432 247.307 699.526 246.053 699.526 244.56C699.526 241.68 699.152 239.627 698.406 238.4C697.686 237.147 696.526 236.52 694.926 236.52C694.632 236.52 694.312 236.547 693.966 236.6C693.619 236.627 693.259 236.693 692.886 236.8V251.84ZM692.886 262.4H689.446V234.56C690.192 234.24 691.032 233.987 691.966 233.8C692.926 233.587 693.899 233.48 694.886 233.48C696.352 233.48 697.606 233.733 698.646 234.24C699.712 234.747 700.566 235.48 701.206 236.44C701.872 237.373 702.352 238.533 702.646 239.92C702.966 241.28 703.126 242.84 703.126 244.6C703.126 248.147 702.552 250.853 701.406 252.72C700.286 254.587 698.446 255.52 695.886 255.52C695.272 255.52 694.726 255.453 694.246 255.32C693.766 255.213 693.312 255.053 692.886 254.84V262.4ZM711.357 234H716.637V236.96H711.357V248.52C711.357 249.96 711.611 250.973 712.117 251.56C712.651 252.12 713.357 252.4 714.237 252.4C714.691 252.4 715.117 252.333 715.517 252.2C715.944 252.067 716.304 251.907 716.597 251.72L717.277 254.48C716.184 255.12 715.024 255.44 713.797 255.44C711.824 255.44 710.344 254.893 709.357 253.8C708.397 252.68 707.917 250.84 707.917 248.28V228.36L711.357 227.76V234ZM732.022 234H737.302V236.96H732.022V248.52C732.022 249.96 732.275 250.973 732.782 251.56C733.315 252.12 734.022 252.4 734.902 252.4C735.355 252.4 735.782 252.333 736.182 252.2C736.608 252.067 736.968 251.907 737.262 251.72L737.942 254.48C736.848 255.12 735.688 255.44 734.462 255.44C732.488 255.44 731.008 254.893 730.022 253.8C729.062 252.68 728.582 250.84 728.582 248.28V228.36L732.022 227.76V234ZM750.753 237.12C749.9 236.747 748.94 236.56 747.873 236.56C746.886 236.56 745.966 236.733 745.113 237.08V255H741.673V234.92C742.446 234.547 743.326 234.24 744.313 234C745.326 233.733 746.433 233.6 747.633 233.6C748.273 233.6 748.913 233.64 749.553 233.72C750.193 233.8 750.793 233.947 751.353 234.16L750.753 237.12ZM754.532 234.44C755.225 234.147 755.959 233.92 756.732 233.76C757.505 233.573 758.345 233.48 759.252 233.48C761.119 233.48 762.639 234.067 763.812 235.24C764.985 236.387 765.572 238.187 765.572 240.64V254.56C764.612 254.827 763.625 255.04 762.612 255.2C761.625 255.36 760.652 255.44 759.692 255.44C758.732 255.44 757.825 255.32 756.972 255.08C756.145 254.84 755.412 254.453 754.772 253.92C754.159 253.387 753.665 252.72 753.292 251.92C752.919 251.093 752.732 250.093 752.732 248.92C752.732 247.827 752.892 246.88 753.212 246.08C753.559 245.253 754.025 244.573 754.612 244.04C755.199 243.48 755.892 243.067 756.692 242.8C757.492 242.507 758.359 242.36 759.292 242.36C760.172 242.36 761.145 242.467 762.212 242.68V240.76C762.212 239.213 761.905 238.133 761.292 237.52C760.705 236.907 759.852 236.6 758.732 236.6C758.119 236.6 757.532 236.667 756.972 236.8C756.439 236.907 755.865 237.093 755.252 237.36L754.532 234.44ZM756.172 248.88C756.172 250.107 756.492 251.013 757.132 251.6C757.772 252.187 758.679 252.48 759.852 252.48C760.572 252.48 761.359 252.387 762.212 252.2V245.52C761.412 245.307 760.625 245.2 759.852 245.2C759.345 245.2 758.865 245.267 758.412 245.4C757.959 245.507 757.559 245.707 757.212 246C756.892 246.267 756.639 246.64 756.452 247.12C756.265 247.573 756.172 248.16 756.172 248.88ZM771.556 234.6C772.543 234.307 773.609 234.067 774.756 233.88C775.903 233.667 776.956 233.56 777.916 233.56C778.956 233.56 779.903 233.707 780.756 234C781.609 234.267 782.329 234.733 782.916 235.4C783.529 236.067 783.996 236.973 784.316 238.12C784.663 239.24 784.836 240.64 784.836 242.32V255H781.396V242.6C781.396 240.52 781.129 239 780.596 238.04C780.063 237.08 779.063 236.6 777.596 236.6C776.823 236.6 775.956 236.733 774.996 237V255H771.556V234.6ZM793.773 252.56C794.786 252.56 795.546 252.28 796.053 251.72C796.586 251.133 796.853 250.373 796.853 249.44C796.853 248.853 796.746 248.36 796.533 247.96C796.319 247.533 796.039 247.16 795.693 246.84C795.346 246.52 794.946 246.24 794.493 246C794.039 245.733 793.586 245.453 793.133 245.16C792.679 244.893 792.239 244.587 791.813 244.24C791.386 243.867 790.999 243.453 790.653 243C790.333 242.52 790.066 241.987 789.853 241.4C789.666 240.787 789.573 240.08 789.573 239.28C789.573 237.547 790.106 236.147 791.173 235.08C792.266 234.013 793.733 233.48 795.573 233.48C796.346 233.48 797.079 233.587 797.773 233.8C798.466 233.987 799.039 234.2 799.493 234.44L798.733 237.2C798.253 236.933 797.773 236.733 797.293 236.6C796.813 236.467 796.293 236.4 795.733 236.4C794.879 236.4 794.199 236.653 793.693 237.16C793.186 237.64 792.933 238.347 792.933 239.28C792.933 239.813 793.026 240.28 793.213 240.68C793.399 241.053 793.639 241.4 793.933 241.72C794.253 242.013 794.599 242.293 794.973 242.56C795.373 242.827 795.786 243.08 796.213 243.32C796.719 243.613 797.213 243.933 797.693 244.28C798.199 244.627 798.639 245.04 799.013 245.52C799.413 245.973 799.733 246.52 799.973 247.16C800.213 247.773 800.333 248.52 800.333 249.4C800.333 251.24 799.786 252.72 798.693 253.84C797.626 254.96 796.053 255.52 793.973 255.52C792.906 255.52 791.946 255.373 791.093 255.08C790.239 254.787 789.599 254.52 789.173 254.28L789.893 251.44C790.293 251.653 790.826 251.893 791.493 252.16C792.186 252.427 792.946 252.56 793.773 252.56ZM807.886 251.84C808.659 252.267 809.486 252.48 810.366 252.48C811.032 252.48 811.619 252.347 812.126 252.08C812.632 251.813 813.059 251.373 813.406 250.76C813.779 250.147 814.059 249.333 814.246 248.32C814.432 247.307 814.526 246.053 814.526 244.56C814.526 241.68 814.152 239.627 813.406 238.4C812.686 237.147 811.526 236.52 809.926 236.52C809.632 236.52 809.312 236.547 808.966 236.6C808.619 236.627 808.259 236.693 807.886 236.8V251.84ZM807.886 262.4H804.446V234.56C805.192 234.24 806.032 233.987 806.966 233.8C807.926 233.587 808.899 233.48 809.886 233.48C811.352 233.48 812.606 233.733 813.646 234.24C814.712 234.747 815.566 235.48 816.206 236.44C816.872 237.373 817.352 238.533 817.646 239.92C817.966 241.28 818.126 242.84 818.126 244.6C818.126 248.147 817.552 250.853 816.406 252.72C815.286 254.587 813.446 255.52 810.886 255.52C810.272 255.52 809.726 255.453 809.246 255.32C808.766 255.213 808.312 255.053 807.886 254.84V262.4ZM826.597 255H823.157V234H826.597V255ZM824.877 230.28C824.264 230.28 823.731 230.08 823.277 229.68C822.851 229.253 822.637 228.693 822.637 228C822.637 227.307 822.851 226.76 823.277 226.36C823.731 225.933 824.264 225.72 824.877 225.72C825.491 225.72 826.011 225.933 826.437 226.36C826.891 226.76 827.117 227.307 827.117 228C827.117 228.693 826.891 229.253 826.437 229.68C826.011 230.08 825.491 230.28 824.877 230.28ZM838.285 255.4C836.312 255.347 834.898 254.867 834.045 253.96C833.192 253.027 832.765 251.56 832.765 249.56V224.56L836.205 223.96V249.64C836.205 250.573 836.392 251.253 836.765 251.68C837.138 252.08 837.792 252.36 838.725 252.52L838.285 255.4ZM844.932 245.52C844.958 246.533 845.052 247.467 845.212 248.32C845.372 249.147 845.625 249.88 845.972 250.52C846.345 251.133 846.825 251.613 847.412 251.96C848.025 252.307 848.798 252.48 849.732 252.48C850.505 252.48 851.212 252.373 851.852 252.16C852.518 251.92 852.998 251.72 853.292 251.56L853.932 254.32C853.585 254.56 852.998 254.813 852.172 255.08C851.372 255.373 850.412 255.52 849.292 255.52C847.825 255.52 846.585 255.253 845.572 254.72C844.585 254.187 843.772 253.44 843.132 252.48C842.518 251.52 842.078 250.373 841.812 249.04C841.545 247.707 841.412 246.24 841.412 244.64C841.412 240.773 842.052 237.947 843.332 236.16C844.612 234.373 846.305 233.48 848.412 233.48C850.785 233.48 852.465 234.373 853.452 236.16C854.438 237.947 854.932 240.453 854.932 243.68C854.932 243.973 854.932 244.28 854.932 244.6C854.932 244.893 854.918 245.2 854.892 245.52H844.932ZM848.412 236.4C847.265 236.4 846.425 236.973 845.892 238.12C845.385 239.267 845.078 240.8 844.972 242.72H851.332C851.332 240.773 851.132 239.24 850.732 238.12C850.332 236.973 849.558 236.4 848.412 236.4ZM869.073 237.12C868.22 236.747 867.26 236.56 866.193 236.56C865.207 236.56 864.287 236.733 863.433 237.08V255H859.993V234.92C860.767 234.547 861.647 234.24 862.633 234C863.647 233.733 864.753 233.6 865.953 233.6C866.593 233.6 867.233 233.64 867.873 233.72C868.513 233.8 869.113 233.947 869.673 234.16L869.073 237.12ZM873.786 250.44C873.813 250.653 873.826 250.867 873.826 251.08C873.826 251.267 873.826 251.467 873.826 251.68C873.826 253.387 873.586 255.027 873.106 256.6C872.626 258.173 871.973 259.693 871.146 261.16L868.706 260.44C869.373 259.08 869.813 257.693 870.026 256.28C870.239 254.893 870.346 253.587 870.346 252.36C870.346 252.013 870.333 251.68 870.306 251.36C870.306 251.04 870.293 250.733 870.266 250.44H873.786ZM892.935 255H889.455C888.629 252.253 887.842 249.093 887.095 245.52C886.375 241.947 885.709 238.107 885.095 234H888.495C888.602 235.147 888.762 236.493 888.975 238.04C889.189 239.56 889.415 241.133 889.655 242.76C889.922 244.36 890.189 245.92 890.455 247.44C890.722 248.933 890.975 250.213 891.215 251.28C891.455 250.213 891.722 248.907 892.015 247.36C892.335 245.813 892.642 244.227 892.935 242.6C893.255 240.973 893.549 239.4 893.815 237.88C894.082 236.333 894.295 235.04 894.455 234H897.695C897.802 235.04 897.962 236.32 898.175 237.84C898.415 239.36 898.655 240.947 898.895 242.6C899.162 244.227 899.429 245.813 899.695 247.36C899.962 248.907 900.202 250.213 900.415 251.28C900.655 250.213 900.909 248.92 901.175 247.4C901.442 245.88 901.695 244.32 901.935 242.72C902.202 241.12 902.442 239.56 902.655 238.04C902.869 236.493 903.029 235.147 903.135 234H906.415C905.802 238.107 905.122 241.947 904.375 245.52C903.655 249.093 902.882 252.253 902.055 255H898.695C898.482 254.173 898.242 253.12 897.975 251.84C897.735 250.533 897.482 249.147 897.215 247.68C896.975 246.213 896.749 244.747 896.535 243.28C896.322 241.787 896.135 240.427 895.975 239.2C895.815 240.427 895.602 241.787 895.335 243.28C895.069 244.747 894.789 246.213 894.495 247.68C894.202 249.147 893.909 250.533 893.615 251.84C893.349 253.12 893.122 254.173 892.935 255ZM919.425 237.12C918.572 236.747 917.612 236.56 916.545 236.56C915.558 236.56 914.638 236.733 913.785 237.08V255H910.345V234.92C911.118 234.547 911.998 234.24 912.985 234C913.998 233.733 915.105 233.6 916.305 233.6C916.945 233.6 917.585 233.64 918.225 233.72C918.865 233.8 919.465 233.947 920.025 234.16L919.425 237.12ZM926.91 255H923.47V234H926.91V255ZM925.19 230.28C924.577 230.28 924.043 230.08 923.59 229.68C923.163 229.253 922.95 228.693 922.95 228C922.95 227.307 923.163 226.76 923.59 226.36C924.043 225.933 924.577 225.72 925.19 225.72C925.803 225.72 926.323 225.933 926.75 226.36C927.203 226.76 927.43 227.307 927.43 228C927.43 228.693 927.203 229.253 926.75 229.68C926.323 230.08 925.803 230.28 925.19 230.28ZM936.357 234H941.637V236.96H936.357V248.52C936.357 249.96 936.611 250.973 937.117 251.56C937.651 252.12 938.357 252.4 939.237 252.4C939.691 252.4 940.117 252.333 940.517 252.2C940.944 252.067 941.304 251.907 941.597 251.72L942.277 254.48C941.184 255.12 940.024 255.44 938.797 255.44C936.824 255.44 935.344 254.893 934.357 253.8C933.397 252.68 932.917 250.84 932.917 248.28V228.36L936.357 227.76V234ZM949.209 234H954.489V236.96H949.209V248.52C949.209 249.96 949.462 250.973 949.969 251.56C950.502 252.12 951.209 252.4 952.089 252.4C952.542 252.4 952.969 252.333 953.369 252.2C953.796 252.067 954.156 251.907 954.449 251.72L955.129 254.48C954.036 255.12 952.876 255.44 951.649 255.44C949.676 255.44 948.196 254.893 947.209 253.8C946.249 252.68 945.769 250.84 945.769 248.28V228.36L949.209 227.76V234ZM961.025 245.52C961.052 246.533 961.145 247.467 961.305 248.32C961.465 249.147 961.719 249.88 962.065 250.52C962.439 251.133 962.919 251.613 963.505 251.96C964.119 252.307 964.892 252.48 965.825 252.48C966.599 252.48 967.305 252.373 967.945 252.16C968.612 251.92 969.092 251.72 969.385 251.56L970.025 254.32C969.679 254.56 969.092 254.813 968.265 255.08C967.465 255.373 966.505 255.52 965.385 255.52C963.919 255.52 962.679 255.253 961.665 254.72C960.679 254.187 959.865 253.44 959.225 252.48C958.612 251.52 958.172 250.373 957.905 249.04C957.639 247.707 957.505 246.24 957.505 244.64C957.505 240.773 958.145 237.947 959.425 236.16C960.705 234.373 962.399 233.48 964.505 233.48C966.879 233.48 968.559 234.373 969.545 236.16C970.532 237.947 971.025 240.453 971.025 243.68C971.025 243.973 971.025 244.28 971.025 244.6C971.025 244.893 971.012 245.2 970.985 245.52H961.025ZM964.505 236.4C963.359 236.4 962.519 236.973 961.985 238.12C961.479 239.267 961.172 240.8 961.065 242.72H967.425C967.425 240.773 967.225 239.24 966.825 238.12C966.425 236.973 965.652 236.4 964.505 236.4ZM976.087 234.6C977.074 234.307 978.14 234.067 979.287 233.88C980.434 233.667 981.487 233.56 982.447 233.56C983.487 233.56 984.434 233.707 985.287 234C986.14 234.267 986.86 234.733 987.447 235.4C988.06 236.067 988.527 236.973 988.847 238.12C989.194 239.24 989.367 240.64 989.367 242.32V255H985.927V242.6C985.927 240.52 985.66 239 985.127 238.04C984.594 237.08 983.594 236.6 982.127 236.6C981.354 236.6 980.487 236.733 979.527 237V255H976.087V234.6ZM1006.64 255H1003.2V234H1006.64V255ZM1004.92 230.28C1004.3 230.28 1003.77 230.08 1003.32 229.68C1002.89 229.253 1002.68 228.693 1002.68 228C1002.68 227.307 1002.89 226.76 1003.32 226.36C1003.77 225.933 1004.3 225.72 1004.92 225.72C1005.53 225.72 1006.05 225.933 1006.48 226.36C1006.93 226.76 1007.16 227.307 1007.16 228C1007.16 228.693 1006.93 229.253 1006.48 229.68C1006.05 230.08 1005.53 230.28 1004.92 230.28ZM1012.88 234.6C1013.87 234.307 1014.94 234.067 1016.08 233.88C1017.23 233.667 1018.28 233.56 1019.24 233.56C1020.28 233.56 1021.23 233.707 1022.08 234C1022.94 234.267 1023.66 234.733 1024.24 235.4C1024.86 236.067 1025.32 236.973 1025.64 238.12C1025.99 239.24 1026.16 240.64 1026.16 242.32V255H1022.72V242.6C1022.72 240.52 1022.46 239 1021.92 238.04C1021.39 237.08 1020.39 236.6 1018.92 236.6C1018.15 236.6 1017.28 236.733 1016.32 237V255H1012.88V234.6ZM1052.59 251.92V255H1040.23V227.28H1043.83V251.92H1052.59ZM1069.67 254.4C1069.33 254.533 1068.9 254.667 1068.39 254.8C1067.91 254.907 1067.39 255 1066.83 255.08C1066.3 255.187 1065.75 255.267 1065.19 255.32C1064.66 255.4 1064.17 255.44 1063.71 255.44C1062.62 255.44 1061.62 255.307 1060.71 255.04C1059.81 254.8 1059.03 254.36 1058.39 253.72C1057.75 253.08 1057.26 252.213 1056.91 251.12C1056.57 250 1056.39 248.6 1056.39 246.92V234H1059.83V246.8C1059.83 248.853 1060.14 250.307 1060.75 251.16C1061.39 251.987 1062.35 252.4 1063.63 252.4C1064.06 252.4 1064.49 252.387 1064.91 252.36C1065.34 252.307 1065.78 252.213 1066.23 252.08V234H1069.67V254.4ZM1076.21 234.44C1076.91 234.147 1077.64 233.92 1078.41 233.76C1079.19 233.573 1080.03 233.48 1080.93 233.48C1082.8 233.48 1084.32 234.067 1085.49 235.24C1086.67 236.387 1087.25 238.187 1087.25 240.64V254.56C1086.29 254.827 1085.31 255.04 1084.29 255.2C1083.31 255.36 1082.33 255.44 1081.37 255.44C1080.41 255.44 1079.51 255.32 1078.65 255.08C1077.83 254.84 1077.09 254.453 1076.45 253.92C1075.84 253.387 1075.35 252.72 1074.97 251.92C1074.6 251.093 1074.41 250.093 1074.41 248.92C1074.41 247.827 1074.57 246.88 1074.89 246.08C1075.24 245.253 1075.71 244.573 1076.29 244.04C1076.88 243.48 1077.57 243.067 1078.37 242.8C1079.17 242.507 1080.04 242.36 1080.97 242.36C1081.85 242.36 1082.83 242.467 1083.89 242.68V240.76C1083.89 239.213 1083.59 238.133 1082.97 237.52C1082.39 236.907 1081.53 236.6 1080.41 236.6C1079.8 236.6 1079.21 236.667 1078.65 236.8C1078.12 236.907 1077.55 237.093 1076.93 237.36L1076.21 234.44ZM1077.85 248.88C1077.85 250.107 1078.17 251.013 1078.81 251.6C1079.45 252.187 1080.36 252.48 1081.53 252.48C1082.25 252.48 1083.04 252.387 1083.89 252.2V245.52C1083.09 245.307 1082.31 245.2 1081.53 245.2C1081.03 245.2 1080.55 245.267 1080.09 245.4C1079.64 245.507 1079.24 245.707 1078.89 246C1078.57 246.267 1078.32 246.64 1078.13 247.12C1077.95 247.573 1077.85 248.16 1077.85 248.88Z" fill="white"/>
<defs>
<linearGradient id="paint0_linear_21_28" x1="398.006" y1="204.649" x2="1112.01" y2="204.649" gradientUnits="userSpaceOnUse">
<stop stop-color="white" stop-opacity="0"/>
<stop offset="0.25" stop-color="white"/>
<stop offset="0.5" stop-color="white"/>
<stop offset="0.75" stop-color="white"/>
<stop offset="1" stop-color="white" stop-opacity="0"/>
</linearGradient>
<linearGradient id="paint1_linear_21_28" x1="398.006" y1="204.649" x2="1112.01" y2="204.649" gradientUnits="userSpaceOnUse">
<stop stop-color="white" stop-opacity="0"/>
<stop offset="0.25" stop-color="white"/>
<stop offset="0.5" stop-color="white"/>
<stop offset="0.75" stop-color="white"/>
<stop offset="1" stop-color="white" stop-opacity="0"/>
</linearGradient>
</defs>
</svg>
