<?xml version="1.0" encoding="UTF-8" standalone="no"?>
<svg
   width="256"
   height="256"
   viewBox="0 0 256 256"
   fill="none"
   version="1.1"
   id="svg4"
   sodipodi:docname="meooww.svg"
   inkscape:export-filename="../fobos/logo/logo.svg"
   inkscape:export-xdpi="96"
   inkscape:export-ydpi="96"
   xmlns:inkscape="http://www.inkscape.org/namespaces/inkscape"
   xmlns:sodipodi="http://sodipodi.sourceforge.net/DTD/sodipodi-0.dtd"
   xmlns="http://www.w3.org/2000/svg"
   xmlns:svg="http://www.w3.org/2000/svg">
  <defs
     id="defs4" />
  <sodipodi:namedview
     id="namedview4"
     pagecolor="#ffffff"
     bordercolor="#000000"
     borderopacity="0.25"
     inkscape:showpageshadow="2"
     inkscape:pageopacity="0.0"
     inkscape:pagecheckerboard="0"
     inkscape:deskcolor="#d1d1d1">
    <inkscape:page
       x="0"
       y="0"
       width="256"
       height="256"
       id="page2"
       margin="0"
       bleed="0" />
  </sodipodi:namedview>
  <g
     id="g12"
     transform="matrix(1.0147915,0,0,1.0147915,-5.9781566,-1.8933166)">
    <rect
       x="43.957001"
       width="168.086"
       height="168.086"
       fill="#800000"
       id="rect1"
       style="fill:#a40f0f;fill-opacity:1;stroke-width:0.656586"
       y="43.957001" />
    <path
       id="path5"
       style="opacity:1;fill:#2b0000;fill-opacity:1;stroke:none;stroke-width:9.84878;stroke-linecap:round;stroke-linejoin:round;stroke-dasharray:none;stroke-opacity:0.976471;paint-order:stroke fill markers"
       d="M 215.10056,68.617817 A 55.85707,109.67255 76.623323 0 1 234.74702,91.762865 55.85707,109.67255 76.623323 0 1 140.97313,171.47622 55.85707,109.67255 76.623323 0 1 21.353221,142.50865 55.85707,109.67255 76.623323 0 1 27.833293,114.21701 63.392835,129.67573 76.623323 0 0 5.8443046,162.40476 63.392835,129.67573 76.623323 0 0 146.66795,194.07681 63.392835,129.67573 76.623323 0 0 258.15958,102.40331 63.392835,129.67573 76.623323 0 0 215.10056,68.617817 Z"
       inkscape:transform-center-y="6.8022187"
       inkscape:transform-center-x="-1.0706515" />
    <path
       id="path9"
       style="fill:#a40f0f;fill-opacity:1;stroke-width:0.656586;stroke-linecap:round;paint-order:stroke fill markers"
       d="m 180.19731,133.80283 c -6.4255,0 -12.36887,1.54776 -17.27128,4.84104 -1.75198,1.16914 -3.34206,2.54489 -4.77052,4.09085 v -7.94701 h -54.56203 v 73.176 h 23.0459 V 179.9934 h 22.88818 c 0.51598,3.89642 1.40163,7.5208 2.72381,10.84906 l 0.005,0.0128 0.005,0.0141 c 2.27084,5.63796 5.88254,10.3482 10.67336,13.54209 l 0.0193,0.0128 0.0205,0.0128 c 4.90205,3.21169 10.81652,4.70895 17.22255,4.70895 6.38332,0 12.25029,-1.44636 17.10458,-4.59738 l 0.0308,-0.0193 0.0294,-0.0205 c 4.79675,-3.19782 8.42359,-7.92379 10.75672,-13.60107 2.34121,-5.69694 3.39835,-12.24433 3.39835,-19.58089 0,-7.20961 -1.05771,-13.64085 -3.41373,-19.22437 -2.33419,-5.59639 -5.95403,-10.26105 -10.71313,-13.44334 -4.85389,-3.31112 -10.77616,-4.85643 -17.19306,-4.85643 z m -53.55793,22.84971 h 24.11671 c -0.12379,0.45284 -0.23208,0.91637 -0.34239,1.37857 h -23.77432 z" />
    <path
       d="M 109.50252,202.05495 V 140.697 h 42.74375 v 10.04576 h -31.51613 v 13.19738 h 25.70535 v 10.14425 h -25.70535 v 27.97056 z"
       fill="#ffffff"
       id="path2"
       style="stroke-width:0.656586" />
    <path
       d="m 180.19779,203.23681 c -5.51532,0 -10.17708,-1.24752 -13.98527,-3.74254 -3.74254,-2.49503 -6.56587,-6.10625 -8.46996,-10.83367 -1.90411,-4.79308 -2.85616,-10.57103 -2.85616,-17.33387 0,-6.63152 0.95205,-12.27816 2.85616,-16.93992 1.90409,-4.72741 4.72742,-8.33864 8.46996,-10.83366 3.80819,-2.56069 8.46995,-3.84104 13.98527,-3.84104 5.51532,0 10.14426,1.28035 13.8868,3.84104 3.74254,2.49502 6.59869,6.10625 8.56844,10.83366 1.96976,4.66176 2.95464,10.3084 2.95464,16.93992 0,6.76284 -0.98488,12.54079 -2.95464,17.33387 -1.96975,4.79307 -4.8259,8.43713 -8.56844,10.93216 -3.74254,2.42937 -8.37148,3.64405 -13.8868,3.64405 z m 0,-10.14426 c 2.692,0 4.99006,-0.7879 6.89416,-2.36371 1.90409,-1.5758 3.38142,-3.97234 4.43195,-7.18961 1.05053,-3.21728 1.57581,-7.32093 1.57581,-12.31098 0,-4.59611 -0.52528,-8.46996 -1.57581,-11.62158 -1.05053,-3.21727 -2.52786,-5.64664 -4.43195,-7.28811 -1.9041,-1.64146 -4.20216,-2.46219 -6.89416,-2.46219 -2.692,0 -5.02288,0.82073 -6.99264,2.46219 -1.9041,1.64147 -3.34859,4.07084 -4.33347,7.28811 -0.98488,3.15162 -1.47731,7.02547 -1.47731,11.62158 0,4.99005 0.49243,9.0937 1.47731,12.31098 0.98488,3.21727 2.42937,5.61381 4.33347,7.18961 1.96976,1.57581 4.30064,2.36371 6.99264,2.36371 z"
       fill="#ffffff"
       id="path1"
       style="stroke-width:0.656586" />
  </g>
</svg>
